PathFileType	4	(X/Y/Z)	KinectSkeleton.trc																																																	
DataRate	CameraRate	NumFrames	NumMarkers	Units	OrigDataRate	OrigDataStartFrame	OrigNumFrames																																													
60	60	15	17	mm	60	151	300																																													
Frame#	Time	Neck			ShoulderMid			R.Shoulder			L.Shoulder			R.Elbow			L.Elbow			R.Wrist			L.Wrist			HipCenter			R.Hip			L.Hip			R.Knee			L.Knee			R.Ankle			L.Ankle			R.Foot			L.Foot		
		X1	Y1	Z1	X2	Y2	Z2	X3	Y3	Z3	X4	Y4	Z4	X5	Y5	Z5	X6	Y6	Z6	X7	Y7	Z7	X8	Y8	Z8	X9	Y9	Z9	X10	Y10	Z10	X11	Y11	Z11	X12	Y12	Z12	X13	Y13	Z13	X14	Y14	Z14	X15	Y15	Z15	X16	Y16	Z16	X17	Y17	Z17
																																																				
151	9.302	-1528.462	751.28	-158.855	-1528.462	751.28	-158.855	-1528.109	691.849	12.58	-1534.369	674.824	-333.319	-1570.367	463.921	188.512	-1605.846	424.322	-450.423	-1474.045	273.612	304.406	-1518.034	217.197	-533.197	-1583.287	201.922	-105.086	-1588.024	211.436	-20.773	-1578.033	191.37	-198.586	-1610.115	-197.871	32.235	-1623.634	-218.962	-171.265	-1844.14	-519.932	66.583	-1687.94	-608.22	-144.685	-1786.638	-688.394	59.604	-1516.301	-697.767	-147.968
152	9.349	-1525.663	749.357	-161.316	-1525.663	749.357	-161.316	-1526.243	690.472	9.56	-1529.099	670.331	-334.026	-1564.567	463.773	185.762	-1602.067	423.495	-454.73	-1470.935	273.284	301.222	-1514.892	216.911	-536.321	-1577.89	202.013	-107.65	-1585.559	211.443	-23.94	-1569.384	191.555	-200.481	-1591.072	-195.563	35.818	-1622.669	-215.795	-171.375	-1832.903	-510.288	61.605	-1702.121	-600.372	-144.714	-1787.471	-681.679	63.408	-1528.132	-682.939	-137.339
153	9.395	-1523.155	747.955	-161.696	-1523.155	747.955	-161.696	-1521.707	685.533	7.608	-1526.298	669.504	-334.37	-1557.723	460.202	184.694	-1591.792	424.576	-461.183	-1470.011	268.673	301.634	-1508.809	217.212	-543.18	-1571.252	201.478	-110.015	-1578.155	210.934	-26.485	-1563.596	190.993	-202.647	-1565.262	-194.794	32.762	-1622.554	-214.073	-169.481	-1810.57	-505.002	62.64	-1710.403	-595.438	-139.759	-1760.417	-674.454	68.453	-1535.692	-675.386	-135.698
154	9.439	-1521.296	747.933	-161.978	-1521.296	747.933	-161.978	-1522.981	685.395	7.233	-1523.461	667.726	-333.979	-1554.498	459.459	184.072	-1586.262	424.099	-464.169	-1465.332	268.753	300.907	-1506.199	216.823	-548.764	-1569.12	201.475	-113.093	-1575.833	210.076	-29.515	-1561.676	191.937	-205.777	-1557.395	-195.112	29.953	-1621.314	-212.584	-170.812	-1801.664	-505.896	58.629	-1710.281	-593.259	-139.294	-1734.721	-667.244	85.169	-1535.336	-672.379	-135.481
155	9.486	-1518.522	745.382	-164.003	-1518.522	745.382	-164.003	-1521.677	680.963	3.849	-1521.606	667.316	-336.123	-1549.417	456.971	181.994	-1582.53	423.823	-465.102	-1463.318	266.729	299.989	-1504.018	216.215	-547.769	-1568.013	201.244	-113.133	-1575.054	210.886	-30.021	-1560.205	190.551	-205.301	-1542.302	-192.394	25.351	-1619.995	-212.434	-171.216	-1794.33	-494.659	56.92	-1708.785	-591.705	-140.88	-1720.57	-651.836	85.835	-1535.933	-673.233	-132.247
156	9.533	-1516.387	746.171	-163.825	-1516.387	746.171	-163.825	-1518.17	681.319	3.665	-1524.177	667.581	-335.965	-1547.677	453.6	176.668	-1577.38	418.596	-457.586	-1462.436	258.168	286.455	-1503.732	208.568	-538.509	-1566.925	202.409	-112.678	-1568.943	212.103	-29.309	-1564.687	191.659	-205.13	-1540.246	-192.764	15.297	-1615.902	-212.521	-171.887	-1749.802	-525.452	50.554	-1686.473	-595.309	-138.659	-1665.815	-673.596	94.97	-1521.531	-691.931	-145.582
157	9.595	-1518.494	747.998	-161.315	-1518.494	747.998	-161.315	-1517.258	679.165	4.939	-1524.128	669.408	-333.763	-1555.154	437.832	156.473	-1580.997	412.614	-435.856	-1496.578	228.415	257.546	-1515.859	193.099	-496.219	-1555.808	202.816	-113.754	-1560.097	212.192	-30.443	-1551.052	192.419	-206.142	-1542.19	-193.877	8.104	-1616.799	-209.598	-172.713	-1715.93	-547.297	34.873	-1710.131	-587.693	-142.478	-1609.502	-675.364	91.785	-1536.883	-668.452	-135.705
158	9.671	-1515.855	748.821	-158.556	-1515.855	748.821	-158.556	-1519.037	674.29	5.872	-1523.372	667.773	-330.13	-1553.192	424.9	144.227	-1581.664	406.654	-418.942	-1488.874	211.628	232.462	-1519.912	184.028	-469.984	-1553.384	203.843	-113.498	-1556.734	212.62	-30.148	-1549.668	194.11	-205.929	-1546.088	-193.859	2.787	-1616.636	-207.325	-172.061	-1692.885	-559.672	16.311	-1711.623	-584.74	-142.656	-1570.653	-671.709	74.816	-1541.64	-671.052	-129.3
159	9.732	-1514.956	750.871	-156.788	-1514.956	750.871	-156.788	-1504.539	685.228	10.157	-1518.921	670.88	-329.035	-1574.807	420.672	99.421	-1587.596	397.764	-352.215	-1532.603	186.194	129.734	-1538.257	165.843	-347.217	-1553.547	204.882	-108.874	-1551.109	213.483	-25.274	-1556.251	195.343	-201.582	-1539.096	-195.032	-38.866	-1613.088	-209.049	-173.117	-1643.376	-575.723	-60.995	-1687.576	-592.036	-144.382	-1521.198	-701.162	-40.989	-1526.137	-692.804	-166.268
160	9.78	-1514.497	753.46	-155.098	-1514.497	753.46	-155.098	-1501.492	682.825	9.673	-1520.64	663.359	-323.599	-1581.084	415.966	79.705	-1593.013	391.147	-332.684	-1528.578	182.824	95.804	-1540.106	161.555	-311.849	-1550.766	208.515	-111.901	-1547.617	216.39	-28.48	-1554.259	199.781	-204.411	-1540.175	-191.055	-44.375	-1612.332	-203.175	-173.881	-1646.128	-570.572	-58.357	-1687.24	-584.792	-142.376	-1531.817	-703.355	-44.267	-1525.281	-684.111	-162.498
161	9.823	-1515.347	754.542	-147.138	-1515.347	754.542	-147.138	-1498.555	682.635	16.877	-1524.98	667.672	-316.936	-1577.51	414.764	84.127	-1597.755	395.768	-332.677	-1529.139	180.75	101.737	-1551.789	163.884	-322.546	-1545.983	209.052	-109.405	-1542.642	215.943	-25.875	-1549.689	201.409	-202.037	-1557.904	-191.482	-40.356	-1608.88	-201.653	-173.167	-1655.218	-573.406	-55.477	-1684.995	-583.312	-143.41	-1535.882	-701.643	-40.22	-1525.865	-687.518	-161.966
162	9.87	-1515.307	755.288	-142.546	-1515.307	755.288	-142.546	-1498.541	681.385	19.811	-1522.008	667.464	-310.852	-1575.471	414.185	84.753	-1595.86	398.396	-336.927	-1527.413	181.564	102.296	-1546.398	168.47	-334.095	-1542.732	212.518	-109.92	-1545.196	218.535	-26.793	-1539.999	205.846	-202.105	-1561.196	-186.542	-37.635	-1612.002	-192.61	-172.72	-1649.559	-568.078	-56.043	-1707.129	-567.666	-144.138	-1532.843	-697.02	-38.641	-1543.961	-664.524	-153.425
163	9.916	-1511.701	755.363	-142.218	-1511.701	755.363	-142.218	-1495.955	681.388	19.843	-1518.35	673.446	-312.81	-1570.567	413.355	83.484	-1594.04	404.736	-335.788	-1527.954	179.699	99.883	-1543.246	175.222	-331.893	-1546.84	213.393	-110.67	-1545.974	219.492	-27.554	-1547.801	206.629	-202.843	-1560.82	-185.449	-38.363	-1609.926	-193.423	-175.122	-1650.124	-566.681	-54.74	-1688.363	-572.192	-147.169	-1534.186	-696.681	-41.228	-1532.305	-679.544	-160.631
164	9.962	-1513.19	753.796	-136.267	-1513.19	753.796	-136.267	-1497.536	677.284	24.049	-1514.175	673.517	-307.433	-1571.282	409.301	85.571	-1588.518	405.195	-330.523	-1524.382	176.916	99.163	-1541.791	175.599	-321.111	-1544.686	212.802	-107.676	-1544.119	219.149	-24.792	-1545.315	205.763	-199.591	-1562.385	-184.53	-38.058	-1608.918	-192.991	-171.861	-1650.241	-565.013	-55.402	-1687.432	-570.694	-143.599	-1538.92	-698.805	-46.797	-1531.717	-676.006	-166.741
165	10.008	-1513.266	752.433	-136.082	-1513.266	752.433	-136.082	-1495.755	676.993	24.296	-1515.885	674.294	-307.984	-1571.08	409.349	85.51	-1586.514	404.901	-330.597	-1525.068	176.815	99.988	-1538.492	175.527	-321.716	-1544.59	211.304	-107.281	-1541.818	217.639	-24.433	-1547.664	204.278	-199.157	-1558.938	-186.111	-38.277	-1609.617	-194.798	-171.739	-1649.417	-566.053	-54.885	-1686.668	-572.841	-143.471	-1536.93	-698.97	-47.63	-1530.357	-677.317	-166.537
